P3
12 12
255
255 255 255 255 255 255 255 255 255 0 208 248 0 208 248 0 80 224 0 80 224 0 80 224 0 80 224 255 255 255 255 255 255 255 255 255
255 255 255 255 255 255 0 208 248 248 248 248 248 248 248 0 80 224 0 80 224 0 80 224 0 80 224 0 80 224 255 255 255 255 255 255
255 255 255 0 208 248 248 248 248 248 248 248 248 248 248 0 80 224 0 80 224 0 80 224 0 80 224 0 136 248 0 80 224 255 255 255
0 208 248 248 248 248 248 248 248 248 248 248 248 248 248 0 136 248 0 136 248 0 136 248 0 136 248 0 80 224 0 80 224 0 80 224
0 208 248 248 248 248 248 248 248 248 248 248 248 248 248 0 208 248 0 208 248 0 208 248 0 136 248 0 80 224 0 80 224 0 80 224
0 32 216 0 32 216 0 32 216 0 136 248 0 208 248 0 208 248 0 208 248 0 208 248 0 136 248 0 32 216 0 32 216 0 32 216
0 32 216 0 32 216 0 32 216 0 136 248 0 208 248 0 208 248 0 208 248 0 208 248 0 136 248 0 0 184 0 0 184 0 32 216
0 32 216 0 32 216 0 32 216 0 80 224 0 208 248 0 208 248 0 208 248 0 208 248 0 136 248 0 0 184 0 0 184 0 32 216
0 32 216 0 32 216 0 32 216 0 136 248 0 80 224 0 80 224 0 80 224 0 80 224 0 136 248 0 0 184 0 0 184 0 32 216
255 255 255 0 32 216 0 136 248 0 136 248 0 136 248 0 136 248 0 136 248 0 136 248 0 136 248 0 136 248 0 32 216 255 255 255
255 255 255 255 255 255 0 136 248 0 136 248 0 136 248 0 136 248 0 136 248 0 136 248 0 136 248 0 32 216 255 255 255 255 255 255
255 255 255 255 255 255 255 255 255 0 80 224 0 80 224 0 80 224 0 80 224 0 80 224 0 80 224 255 255 255 255 255 255 255 255 255
